HIERARCHY
ROOT reference
{
  OFFSET 0 0 0
  CHANNELS 6 Xposition Yposition Zposition Zrotation Xrotation Yrotation
  JOINT Hips
  {
    OFFSET 350.331 86.7696 215.823
    CHANNELS 3 Zrotation Xrotation Yrotation
    JOINT RightUpLeg
    {
      OFFSET -9.29271 -1.56052 -0.0234997
      CHANNELS 3 Zrotation Xrotation Yrotation
      JOINT RightLeg
      {
        OFFSET -0.0199852 -41.8973 0.0465042
        CHANNELS 3 Zrotation Xrotation Yrotation
        JOINT RightFoot
        {
          OFFSET -0.344404 -43.5008 0.46033
          CHANNELS 3 Zrotation Xrotation Yrotation
          End Site
          {
            OFFSET 0 -7.69 17.5
          }
        }
      }
    }
    JOINT LeftUpLeg
    {
      OFFSET 9.27671 -1.61046 0.00923455
      CHANNELS 3 Zrotation Xrotation Yrotation
      JOINT LeftLeg
      {
        OFFSET 0.0572944 -41.8832 0.025786
        CHANNELS 3 Zrotation Xrotation Yrotation
        JOINT LeftFoot
        {
          OFFSET 0.630082 -40.4663 0.064708
          CHANNELS 3 Zrotation Xrotation Yrotation
          End Site
          {
            OFFSET 0 -7.69 17.5
          }
        }
      }
    }
    JOINT Spine
    {
      OFFSET 0.0336257 14.3009 0.0467062
      CHANNELS 3 Zrotation Xrotation Yrotation
      JOINT Spine1
      {
        OFFSET 0.0295985 9.72711 0.0239471
        CHANNELS 3 Zrotation Xrotation Yrotation
        JOINT Spine2
        {
          OFFSET 0.0515174 10.1206 0.00128176
          CHANNELS 3 Zrotation Xrotation Yrotation
          JOINT Spine3
          {
            OFFSET 0.0546141 9.71668 0.0122483
            CHANNELS 3 Zrotation Xrotation Yrotation
            JOINT Neck
            {
              OFFSET 0.0872189 10.3831 0.0511468
              CHANNELS 3 Zrotation Xrotation Yrotation
              JOINT Head
              {
                OFFSET 0.0544 9.47189 0.0313815
                CHANNELS 3 Zrotation Xrotation Yrotation
                End Site
                {
                  OFFSET 0 15.95 0
                }
              }
            }
            JOINT RightShoulder
            {
              OFFSET -3.15364 6.93551 0.0260198
              CHANNELS 3 Zrotation Xrotation Yrotation
              JOINT RightArm
              {
                OFFSET -12.7567 0.0626665 0.0664987
                CHANNELS 3 Zrotation Xrotation Yrotation
                JOINT RightForeArm
                {
                  OFFSET -26.5087 -0.073346 0.274032
                  CHANNELS 3 Zrotation Xrotation Yrotation
                  JOINT RightHand
                  {
                    OFFSET -26.0005 -0.196673 0.105827
                    CHANNELS 3 Zrotation Xrotation Yrotation
                    JOINT RightHandThumb1
                    {
                      OFFSET -2.48905 0.190105 3.12053
                      CHANNELS 3 Zrotation Xrotation Yrotation
                      JOINT RightHandThumb2
                      {
                        OFFSET -3.68274 0 0
                        CHANNELS 3 Zrotation Xrotation Yrotation
                        JOINT RightHandThumb3
                        {
                          OFFSET -2.55832 0 0
                          CHANNELS 3 Zrotation Xrotation Yrotation
                          End Site
                          {
                            OFFSET -2.194 0 0
                          }
                        }
                      }
                    }
                    JOINT RightInHandIndex
                    {
                      OFFSET -3.22368 0.508421 1.97842
                      CHANNELS 3 Zrotation Xrotation Yrotation
                      JOINT RightHandIndex1
                      {
                        OFFSET -5.21684 -0.091368 0.999158
                        CHANNELS 3 Zrotation Xrotation Yrotation
                        JOINT RightHandIndex2
                        {
                          OFFSET -3.61937 0 0
                          CHANNELS 3 Zrotation Xrotation Yrotation
                          JOINT RightHandIndex3
                          {
                            OFFSET -2.0521 0 0
                            CHANNELS 3 Zrotation Xrotation Yrotation
                            End Site
                            {
                              OFFSET -1.805 0 0
                            }
                          }
                        }
                      }
                    }
                    JOINT RightInHandMiddle
                    {
                      OFFSET -3.38211 0.517263 0.756737
                      CHANNELS 3 Zrotation Xrotation Yrotation
                      JOINT RightHandMiddle1
                      {
                        OFFSET -5.17411 -0.084 0.313895
                        CHANNELS 3 Zrotation Xrotation Yrotation
                        JOINT RightHandMiddle2
                        {
                          OFFSET -3.94947 0 0
                          CHANNELS 3 Zrotation Xrotation Yrotation
                          JOINT RightHandMiddle3
                          {
                            OFFSET -2.47579 0 0
                            CHANNELS 3 Zrotation Xrotation Yrotation
                            End Site
                            {
                              OFFSET -1.975 0 0
                            }
                          }
                        }
                      }
                    }
                    JOINT RightInHandRing
                    {
                      OFFSET -3.36516 0.537895 -0.128947
                      CHANNELS 3 Zrotation Xrotation Yrotation
                      JOINT RightHandRing1
                      {
                        OFFSET -4.63474 -0.022105 -0.478947
                        CHANNELS 3 Zrotation Xrotation Yrotation
                        JOINT RightHandRing2
                        {
                          OFFSET -3.44238 0 0
                          CHANNELS 3 Zrotation Xrotation Yrotation
                          JOINT RightHandRing3
                          {
                            OFFSET -2.3881 0 0
                            CHANNELS 3 Zrotation Xrotation Yrotation
                            End Site
                            {
                              OFFSET -1.857 0 0
                            }
                          }
                        }
                      }
                    }
                    JOINT RightInHandPinky
                    {
                      OFFSET -3.16105 0.469368 -1.20179
                      CHANNELS 3 Zrotation Xrotation Yrotation
                      JOINT RightHandPinky1
                      {
                        OFFSET -4.14105 -0.022105 -1.09053
                        CHANNELS 3 Zrotation Xrotation Yrotation
                        JOINT RightHandPinky2
                        {
                          OFFSET -2.75653 0 0
                          CHANNELS 3 Zrotation Xrotation Yrotation
                          JOINT RightHandPinky3
                          {
                            OFFSET -1.74189 0 0
                            CHANNELS 3 Zrotation Xrotation Yrotation
                            End Site
                            {
                              OFFSET -1.645 0 0
                            }
                          }
                        }
                      }
                    }
                  }
                }
              }
            }
            JOINT LeftShoulder
            {
              OFFSET 3.27252 6.91581 -0.0198585
              CHANNELS 3 Zrotation Xrotation Yrotation
              JOINT LeftArm
              {
                OFFSET 12.8319 -0.0466028 -0.0574599
                CHANNELS 3 Zrotation Xrotation Yrotation
                JOINT LeftForeArm
                {
                  OFFSET 26.4942 -0.039105 -0.0936
                  CHANNELS 3 Zrotation Xrotation Yrotation
                  JOINT LeftHand
                  {
                    OFFSET 26.0008 0.022674 -0.016655
                    CHANNELS 3 Zrotation Xrotation Yrotation
                    JOINT LeftHandThumb1
                    {
                      OFFSET 2.48905 0.190105 3.12053
                      CHANNELS 3 Zrotation Xrotation Yrotation
                      JOINT LeftHandThumb2
                      {
                        OFFSET 3.68274 0 0
                        CHANNELS 3 Zrotation Xrotation Yrotation
                        JOINT LeftHandThumb3
                        {
                          OFFSET 2.55832 0 0
                          CHANNELS 3 Zrotation Xrotation Yrotation
                          End Site
                          {
                            OFFSET 2.194 0 0
                          }
                        }
                      }
                    }
                    JOINT LeftInHandIndex
                    {
                      OFFSET 3.22368 0.508421 1.97842
                      CHANNELS 3 Zrotation Xrotation Yrotation
                      JOINT LeftHandIndex1
                      {
                        OFFSET 5.21684 -0.091368 0.999158
                        CHANNELS 3 Zrotation Xrotation Yrotation
                        JOINT LeftHandIndex2
                        {
                          OFFSET 3.61937 0 0
                          CHANNELS 3 Zrotation Xrotation Yrotation
                          JOINT LeftHandIndex3
                          {
                            OFFSET 2.0521 0 0
                            CHANNELS 3 Zrotation Xrotation Yrotation
                            End Site
                            {
                              OFFSET 1.805 0 0
                            }
                          }
                        }
                      }
                    }
                    JOINT LeftInHandMiddle
                    {
                      OFFSET 3.38211 0.517263 0.756737
                      CHANNELS 3 Zrotation Xrotation Yrotation
                      JOINT LeftHandMiddle1
                      {
                        OFFSET 5.17411 -0.084 0.313895
                        CHANNELS 3 Zrotation Xrotation Yrotation
                        JOINT LeftHandMiddle2
                        {
                          OFFSET 3.94947 0 0
                          CHANNELS 3 Zrotation Xrotation Yrotation
                          JOINT LeftHandMiddle3
                          {
                            OFFSET 2.47579 0 0
                            CHANNELS 3 Zrotation Xrotation Yrotation
                            End Site
                            {
                              OFFSET 1.975 0 0
                            }
                          }
                        }
                      }
                    }
                    JOINT LeftInHandRing
                    {
                      OFFSET 3.36516 0.537895 -0.128947
                      CHANNELS 3 Zrotation Xrotation Yrotation
                      JOINT LeftHandRing1
                      {
                        OFFSET 4.63474 -0.022105 -0.478947
                        CHANNELS 3 Zrotation Xrotation Yrotation
                        JOINT LeftHandRing2
                        {
                          OFFSET 3.44238 0 0
                          CHANNELS 3 Zrotation Xrotation Yrotation
                          JOINT LeftHandRing3
                          {
                            OFFSET 2.3881 0 0
                            CHANNELS 3 Zrotation Xrotation Yrotation
                            End Site
                            {
                              OFFSET 1.857 0 0
                            }
                          }
                        }
                      }
                    }
                    JOINT LeftInHandPinky
                    {
                      OFFSET 3.16105 0.469368 -1.20179
                      CHANNELS 3 Zrotation Xrotation Yrotation
                      JOINT LeftHandPinky1
                      {
                        OFFSET 4.14105 -0.022105 -1.09053
                        CHANNELS 3 Zrotation Xrotation Yrotation
                        JOINT LeftHandPinky2
                        {
                          OFFSET 2.75653 0 0
                          CHANNELS 3 Zrotation Xrotation Yrotation
                          JOINT LeftHandPinky3
                          {
                            OFFSET 1.74189 0 0
                            CHANNELS 3 Zrotation Xrotation Yrotation
                            End Site
                            {
                              OFFSET 1.645 0 0
                            }
                          }
                        }
                      }
                    }
                  }
                }
              }
            }
          }
        }
      }
    }
  }
}
MOTION
Frames: 2
Frame Time: 0.00833333
3.150000000000000000e+03 0.000000000000000000e+00 0.000000000000000000e+00 0.000000000000000000e+00 0.000000000000000000e+00 0.000000000000000000e+00 2.284530000000000527e+01 5.325430000000000774e+00 -1.376109999999999900e+02 3.304290000000000305e+01 -3.596370000000000999e+01 2.829239999999999711e+01 -4.113060000000000827e+00 6.538190000000000168e+00 6.482660000000000089e+00 1.025369999999999848e+01 1.851140000000000541e+01 4.435949999999999704e+01 3.723369999999999891e+01 -9.728509999999999991e+00 2.495559999999999690e+01 -2.303889999999999816e+01 4.308269999999999555e+01 2.538980000000000459e+01 1.854230000000000267e+00 -2.659329999999999927e+01 1.168120000000000047e+01 -4.297369999999999912e+00 -6.307780000000000165e+00 -1.002840000000000131e+01 -9.702359999999999873e-01 -1.691009999999999680e+00 -2.404990000000000627e+00 -1.637950000000000017e+00 -2.805630000000000734e+00 -3.930750000000000632e+00 -3.620650000000000257e-01 1.014410000000000034e-01 2.742340000000000444e+00 -8.674879999999999258e-01 -1.452240000000000197e-01 3.445550000000000068e+01 -7.047530000000000960e+00 9.535019999999999385e+00 3.011090000000000444e+01 5.293329999999999202e+00 8.140399999999999636e+00 -8.788589999999999236e+00 3.787789999999999679e+01 -6.510280000000000200e+01 -2.762449999999958550e-01 2.122400000000000020e+01 -2.954320000000000945e+00 1.278529999999999944e+02 9.045320000000000249e+00 -2.853579999999999472e+01 3.867309999999998027e+00 2.818400000000000105e+01 1.072940000000000005e+01 1.915919999999999845e+01 2.341470000000000397e-14 0.000000000000000000e+00 -1.000000000000000000e+01 1.412959999999999830e-14 0.000000000000000000e+00 -1.000000000000000000e+01 9.529239999999999415e-15 -4.770829999999998678e-15 -4.224169999999999376e-15 1.998179999999999978e+01 8.718970000000000331e-01 2.396399999999999864e+00 2.400000000000000000e+01 1.590280000000000116e-14 2.385419999999999859e-14 2.000000000000000000e+01 6.361109999999999741e-15 2.067360000000000051e-14 9.529239999999999415e-15 -4.770829999999998678e-15 -4.224169999999999376e-15 2.000000000000000000e+01 -1.590280000000000274e-15 1.033679999999999868e-14 2.400000000000000000e+01 7.951389999999997649e-15 1.272219999999999993e-14 2.000000000000000000e+01 7.951390000000001198e-16 3.339580000000000044e-14 9.529239999999999415e-15 -4.770829999999998678e-15 -4.224169999999999376e-15 1.997479999999999833e+01 -1.025649999999999951e+00 -2.819380000000000219e+00 2.400000000000000000e+01 -4.770830000000000256e-15 2.067359999999999420e-14 2.000000000000000000e+01 -1.987850000000000145e-15 2.544439999999999986e-14 9.529239999999999415e-15 -4.770829999999998678e-15 -4.224169999999999376e-15 1.978150000000000119e+01 -3.009479999999999933e+00 -8.305149999999999366e+00 2.400000000000000000e+01 -3.379340000000000201e-15 1.431249999999999581e-14 2.000000000000000000e+01 2.782989999999999888e-15 7.951390000000000804e-15 4.056210000000000093e+00 -1.514830000000000076e+01 -5.475759999999999650e+01 -7.331910000000000593e+00 2.394050000000000011e+01 -1.166170000000000044e+02 2.959870000000000090e+01 -1.848549999999999827e+01 -3.849049999999999727e+01 -3.687010000000000076e+01 -9.352259999999999351e+00 -1.508030000000000115e+01 -2.818400000000000105e+01 1.072940000000000005e+01 -1.915919999999999845e+01 -5.057200000000000214e-15 -7.951389999999999226e-15 1.000000000000000000e+01 8.750480000000002514e-16 -9.541660000000000512e-15 1.000000000000000000e+01 8.897170000000001748e-15 3.242670000000000684e-15 3.180549999999999982e-15 -1.998179999999999978e+01 8.718970000000000331e-01 -2.396399999999999864e+00 -2.400000000000000000e+01 -4.770829999999999467e-15 -1.590280000000000116e-14 -2.000000000000000000e+01 0.000000000000000000e+00 -1.590280000000000116e-14 8.897170000000001748e-15 3.242670000000000684e-15 3.180549999999999982e-15 -2.000000000000000000e+01 7.951389999999999226e-16 -6.361109999999999741e-15 -2.400000000000000000e+01 1.113189999999999931e-14 4.770830000000001045e-15 -2.000000000000000000e+01 1.590280000000000274e-15 -5.565969999999999999e-15 8.897170000000001748e-15 3.242670000000000684e-15 3.180549999999999982e-15 -1.997479999999999833e+01 -1.025649999999999951e+00 2.819380000000000219e+00 -2.400000000000000000e+01 1.590280000000000866e-15 0.000000000000000000e+00 -2.000000000000000000e+01 -6.361109999999998952e-15 7.156249999999999484e-15 8.897170000000001748e-15 3.242670000000000684e-15 3.180549999999999982e-15 -1.978150000000000119e+01 -3.009479999999999933e+00 8.305149999999999366e+00 -2.400000000000000000e+01 0.000000000000000000e+00 3.975689999999999725e-15 -2.000000000000000000e+01 -2.385419999999998833e-15 -1.351739999999999833e-14
3.150000000000000000e+03 0.000000000000000000e+00 0.000000000000000000e+00 0.000000000000000000e+00 0.000000000000000000e+00 0.000000000000000000e+00 2.290710000000000335e+01 5.406349999999999767e+00 -1.376289999999999623e+02 3.316980000000000928e+01 -3.599219999999999686e+01 2.838510000000000133e+01 -4.147239999999999149e+00 6.601000000000001755e+00 6.467730000000001311e+00 1.031489999999999796e+01 1.848829999999999885e+01 4.430469999999998976e+01 3.734560000000000457e+01 -9.767299999999998761e+00 2.503069999999999951e+01 -2.299790000000000134e+01 4.316680000000000206e+01 2.532129999999999370e+01 1.929479999999999862e+00 -2.657649999999999579e+01 1.171750000000000114e+01 -4.306779999999999831e+00 -6.331429999999999225e+00 -9.999459999999999127e+00 -9.713259999999999117e-01 -1.692269999999999941e+00 -2.400750000000000384e+00 -1.641649999999999832e+00 -2.814939999999999554e+00 -3.917830000000000368e+00 -3.550829999999999820e-01 1.079189999999999872e-01 2.741130000000000511e+00 -8.635009999999998520e-01 -5.772569999999999091e-02 3.420530000000000115e+01 -6.962260000000000559e+00 9.464510000000002421e+00 3.023469999999999658e+01 5.349450000000000038e+00 8.158730000000002036e+00 -8.906729999999999592e+00 3.813240000000000407e+01 -6.489069999999999538e+01 -8.700500000000488399e-02 2.076300000000000523e+01 -3.175409999999999400e+00 1.278790000000000333e+02 8.966020000000003876e+00 -2.884929999999999950e+01 3.955580000000002094e+00 2.818400000000000105e+01 1.072940000000000005e+01 1.915919999999999845e+01 2.256259999999999945e-14 3.180549999999999193e-15 -1.000000000000000000e+01 1.211109999999999913e-14 0.000000000000000000e+00 -1.000000000000000000e+01 2.969350000000000021e-15 -4.770830000000000256e-15 -5.242949999999999731e-15 1.998179999999999978e+01 8.718970000000000331e-01 2.396399999999999864e+00 2.400000000000000000e+01 1.272220000000000151e-14 2.464930000000000080e-14 2.000000000000000000e+01 8.746530000000000547e-15 1.908329999999999831e-14 2.969350000000000021e-15 -4.770830000000000256e-15 -5.242949999999999731e-15 2.000000000000000000e+01 -3.180549999999999587e-15 1.431249999999999897e-14 2.400000000000000000e+01 4.770830000000000256e-15 7.951389999999999226e-15 2.000000000000000000e+01 3.975689999999999725e-15 3.498609999999999948e-14 2.969350000000000021e-15 -4.770830000000000256e-15 -5.242949999999999731e-15 1.997479999999999833e+01 -1.025649999999999951e+00 -2.819380000000000219e+00 2.400000000000000000e+01 -5.565969999999999999e-15 1.749310000000000336e-14 2.000000000000000000e+01 -1.987850000000000145e-15 1.908330000000000778e-14 2.969350000000000021e-15 -4.770830000000000256e-15 -5.242949999999999731e-15 1.978150000000000119e+01 -3.009479999999999933e+00 -8.305149999999999366e+00 2.400000000000000000e+01 -3.379339999999999806e-15 1.113189999999999931e-14 2.000000000000000000e+01 3.975689999999998936e-15 1.272219999999999993e-14 4.124869999999999592e+00 -1.517420000000000080e+01 -5.477140000000000697e+01 -7.413630000000001274e+00 2.401849999999999241e+01 -1.166140000000000043e+02 2.969090000000000629e+01 -1.844310000000000116e+01 -3.847030000000000882e+01 -3.684580000000000410e+01 -9.301119999999999166e+00 -1.520930000000000071e+01 -2.818400000000000105e+01 1.072940000000000005e+01 -1.915919999999999845e+01 5.371429999999999011e-15 1.590280000000002246e-15 1.000000000000000000e+01 8.141690000000000761e-15 -9.541660000000000512e-15 1.000000000000000000e+01 9.380149999999999984e-15 3.081160000000000156e-15 0.000000000000000000e+00 -1.998179999999999978e+01 8.718970000000000331e-01 -2.396399999999999864e+00 -2.400000000000000000e+01 -4.770830000000001045e-15 -2.226390000000000270e-14 -2.000000000000000000e+01 0.000000000000000000e+00 -1.749310000000000336e-14 9.380149999999999984e-15 3.081160000000000156e-15 0.000000000000000000e+00 -2.000000000000000000e+01 2.385420000000000017e-15 -1.113190000000000089e-14 -2.400000000000000000e+01 7.951389999999999226e-15 3.180550000000000771e-15 -2.000000000000000000e+01 1.590279999999999880e-15 -7.156249999999999484e-15 9.380149999999999984e-15 3.081160000000000156e-15 0.000000000000000000e+00 -1.997479999999999833e+01 -1.025649999999999951e+00 2.819380000000000219e+00 -2.400000000000000000e+01 6.361110000000000530e-15 0.000000000000000000e+00 -2.000000000000000000e+01 -3.180549999999999982e-15 6.361109999999998163e-15 9.380149999999999984e-15 3.081160000000000156e-15 0.000000000000000000e+00 -1.978150000000000119e+01 -3.009479999999999933e+00 8.305149999999999366e+00 -2.400000000000000000e+01 0.000000000000000000e+00 3.180550000000000376e-15 -2.000000000000000000e+01 -3.975689999999998936e-15 -1.431249999999999897e-14
